<svg width="44" height="44" viewBox="0 0 44 44" fill="none" xmlns="http://www.w3.org/2000/svg"><path d="M38.2428 21.6995C38.2428 30.67 30.9708 37.942 22.0003 37.942C18.5788 37.942 15.4043 36.884 12.7863 35.0774L7.2344 36.4654L8.68925 31.0097C6.8419 28.3734 5.75781 25.163 5.75781 21.6995C5.75781 12.729 13.0298 5.45703 22.0003 5.45703C30.9708 5.45703 38.2428 12.729 38.2428 21.6995Z" fill="#121212"/><path fill-rule="evenodd" clip-rule="evenodd" d="M22.0003 40.6491C32.4659 40.6491 40.9499 32.1651 40.9499 21.6996C40.9499 11.234 32.4659 2.75 22.0003 2.75C11.5348 2.75 3.05078 11.234 3.05078 21.6996C3.05078 25.0981 3.94547 28.2877 5.51216 31.0457L3.05078 40.6491L12.9517 38.3532C15.6406 39.8173 18.7233 40.6491 22.0003 40.6491ZM22.0003 37.7338C30.8558 37.7338 38.0346 30.555 38.0346 21.6996C38.0346 12.8441 30.8558 5.66532 22.0003 5.66532C13.1449 5.66532 5.9661 12.8441 5.9661 21.6996C5.9661 25.1187 7.03628 28.2879 8.85996 30.8904L7.42376 36.2761L12.9045 34.906C15.489 36.6894 18.6227 37.7338 22.0003 37.7338Z" fill="white"/><path d="M17.2659 12.9009C16.8154 11.9959 16.1242 12.076 15.426 12.076C14.1782 12.076 12.2324 13.5707 12.2324 16.3525C12.2324 18.6323 13.237 21.1279 16.6222 24.8611C19.8891 28.4639 24.1817 30.3276 27.7453 30.2641C31.3089 30.2007 32.0421 27.1341 32.0421 26.0985C32.0421 25.6394 31.7572 25.4104 31.561 25.3482C30.3466 24.7654 28.1069 23.6794 27.5972 23.4754C27.0876 23.2714 26.8215 23.5474 26.6561 23.6975C26.1939 24.1379 25.2778 25.4359 24.9642 25.7278C24.6505 26.0197 24.1829 25.872 23.9883 25.7616C23.2721 25.4743 21.3305 24.6106 19.7828 23.1103C17.8687 21.2548 17.7563 20.6164 17.3957 20.0481C17.1072 19.5935 17.3189 19.3146 17.4245 19.1927C17.837 18.7169 18.4064 17.9822 18.6618 17.6171C18.9171 17.252 18.7144 16.6977 18.5928 16.3525C18.0696 14.8677 17.6264 13.6248 17.2659 12.9009Z" fill="white"/></svg>