<svg width="44" height="44" viewBox="0 0 44 44" fill="none" xmlns="http://www.w3.org/2000/svg"><path d="M35.7593 21.802C35.7593 29.4009 29.5991 35.561 22.0002 35.561C19.1019 35.561 16.4128 34.6648 14.195 33.1345L9.49203 34.3102L10.7244 29.6887C9.15954 27.4554 8.24121 24.736 8.24121 21.802C8.24121 14.2031 14.4013 8.04297 22.0002 8.04297C29.5991 8.04297 35.7593 14.2031 35.7593 21.802Z" fill="white"/><path fill-rule="evenodd" clip-rule="evenodd" d="M22.0004 37.8544C30.8658 37.8544 38.0526 30.6676 38.0526 21.8022C38.0526 12.9368 30.8658 5.75 22.0004 5.75C13.1351 5.75 5.94824 12.9368 5.94824 21.8022C5.94824 24.6811 6.70613 27.3831 8.03328 29.7193L5.94824 37.8544L14.3354 35.9096C16.6131 37.1498 19.2245 37.8544 22.0004 37.8544ZM22.0004 35.3848C29.5019 35.3848 35.5831 29.3037 35.5831 21.8022C35.5831 14.3007 29.5019 8.21957 22.0004 8.21957C14.499 8.21957 8.41781 14.3007 8.41781 21.8022C8.41781 24.6986 9.32437 27.3832 10.8692 29.5878L9.6526 34.1501L14.2953 32.9894C16.4846 34.5001 19.1392 35.3848 22.0004 35.3848Z" fill="white"/><path d="M17.9895 14.3487C17.6078 13.5821 17.0223 13.65 16.4309 13.65C15.3738 13.65 13.7256 14.9161 13.7256 17.2726C13.7256 19.2038 14.5766 21.3178 17.4442 24.4802C20.2116 27.5321 23.8478 29.1109 26.8665 29.0572C29.8853 29.0034 30.5064 26.4057 30.5064 25.5284C30.5064 25.1396 30.2651 24.9456 30.0989 24.8928C29.0701 24.3991 27.1728 23.4792 26.7411 23.3064C26.3094 23.1336 26.084 23.3673 25.9439 23.4945C25.5524 23.8676 24.7764 24.9671 24.5107 25.2144C24.245 25.4617 23.8488 25.3365 23.684 25.2431C23.0773 24.9996 21.4326 24.268 20.1215 22.9971C18.5001 21.4253 18.4049 20.8845 18.0994 20.4031C17.855 20.0181 18.0344 19.7818 18.1238 19.6785C18.4732 19.2754 18.9556 18.6531 19.1719 18.3438C19.3882 18.0346 19.2165 17.565 19.1134 17.2726C18.6703 16.0148 18.2948 14.962 17.9895 14.3487Z" fill="#121212"/></svg>