<svg width="44" height="44" viewBox="0 0 44 44" fill="none" xmlns="http://www.w3.org/2000/svg">
<path d="M3.0862 13.669C3.26293 10.9482 5.45043 8.8159 8.17364 8.68099C12.117 8.48562 17.7533 8.25 22 8.25C26.2467 8.25 31.883 8.48562 35.8264 8.68099C38.5496 8.8159 40.7371 10.9482 40.9138 13.669C41.0831 16.2758 41.25 19.4833 41.25 22C41.25 24.5167 41.0831 27.7242 40.9138 30.331C40.7371 33.0518 38.5496 35.1841 35.8264 35.319C31.883 35.5144 26.2467 35.75 22 35.75C17.7533 35.75 12.117 35.5144 8.17364 35.319C5.45043 35.1841 3.26293 33.0518 3.0862 30.331C2.91688 27.7242 2.75 24.5167 2.75 22C2.75 19.4833 2.91688 16.2758 3.0862 13.669Z" fill="white"/>
<path d="M17.875 16.5V27.5L28.875 22L17.875 16.5Z" fill="#121212"/>
</svg>
