<svg width="35" height="28" viewBox="0 0 35 28" fill="none" xmlns="http://www.w3.org/2000/svg">
<g clip-path="url(#clip0_3004_1061)">
<path d="M5.93528 37.0724C5.93528 37.6011 6.02554 37.9622 7.25054 37.9622V38.0137H3.08554V37.9622C4.31054 37.9622 4.40081 37.614 4.40081 37.0724V28.8714C4.40081 28.3556 4.37502 28.2524 4.10423 28.2524H3.78186C1.74449 28.2524 1.30607 29.0906 0.700016 31.2053H0.648438L0.996597 27.9688H1.04818C1.17712 28.1493 1.62844 28.1751 1.87344 28.1751H8.43686C8.69475 28.1751 9.15896 28.1493 9.27501 27.9688H9.3266L9.67475 31.2053H9.62317C9.13317 29.3098 8.68186 28.2524 6.52844 28.2524H6.19317C5.94817 28.2524 5.90949 28.3556 5.90949 28.8714V37.0724H5.93528Z" fill="#7A2C1A"/>
<path d="M21.5641 12.8699C21.5641 13.0762 21.6028 13.1149 21.8091 13.102C21.9509 13.0891 22.0928 13.0633 22.2346 13.0504C22.3636 13.0375 22.4281 12.9731 22.4152 12.8441V4.74621C22.4152 4.57858 22.3636 4.48832 22.183 4.50122C22.0412 4.51411 21.8994 4.50122 21.7575 4.50122C21.5512 4.50122 21.5125 4.5399 21.5383 4.74621L21.5641 12.8699Z" fill="#7A2C1A"/>
<path d="M20.4043 13.7836C20.4043 13.6288 20.5204 13.5257 20.6751 13.5386C21.178 13.5902 21.6809 13.6546 22.1838 13.6675C23.2412 13.7062 24.2599 13.5128 25.227 13.0744C25.9749 12.7391 26.6325 12.2749 27.1483 11.6302C27.4964 11.1917 27.793 10.7275 27.9735 10.1859C28.167 9.64437 28.2572 9.08989 28.2572 8.52252C28.2572 7.64568 27.9607 6.872 27.4707 6.16279C26.8517 5.24726 25.9491 4.71858 24.9304 4.35752C24.0278 4.03516 23.0864 4.03516 22.1451 4.03516C21.6551 4.03516 21.178 4.04805 20.688 4.04805C20.1207 4.04805 19.5662 4.04805 18.9988 4.03516C18.973 4.03516 18.9601 4.03516 18.9343 4.03516C18.8957 4.03516 18.857 4.03516 18.8183 4.04805C18.7022 4.08674 18.612 4.18989 18.5346 4.34463C17.6449 6.21437 16.7422 8.0841 15.8396 9.94095C15.427 10.8049 14.9885 11.6431 14.5501 12.5199L13.8796 12.0041C13.4412 11.6688 12.9512 11.4109 12.4483 11.2433C10.2949 10.5341 8.16723 10.7146 6.11697 12.0428C4.90486 12.8165 3.84749 13.7965 3.22855 15.2794C1.88749 18.4773 3.53802 21.9717 6.43933 22.4875C8.02539 22.7712 9.44381 22.1136 10.6301 20.8628C11.6875 19.7538 12.5128 18.4386 13.2993 17.0717C13.828 16.1562 14.318 15.2149 14.808 14.3252C14.8854 14.1833 15.053 14.1446 15.1691 14.2478C16.407 15.3309 18.3154 17.033 19.5275 18.1162C19.5533 18.142 19.5662 18.1678 19.5662 18.2065C19.5662 18.8899 19.5791 21.2367 19.5662 21.7396C19.5533 22.2038 19.3728 22.3844 18.9214 22.4488C18.8828 22.4488 18.8183 22.4359 18.7925 22.5133C18.857 22.5778 18.9472 22.552 19.0246 22.5649C20.7783 22.5649 22.532 22.5649 24.2857 22.5649C25.4591 22.5649 26.6067 22.4359 27.7285 22.0749C29.0696 21.6365 30.2043 20.9015 30.978 19.6894C31.5067 18.8512 31.7001 17.9357 31.5841 16.9557C31.5325 16.4786 31.3778 16.0273 31.1457 15.6017C30.9651 15.2665 30.7717 14.9441 30.5396 14.6475C29.8562 13.8352 29.018 13.2291 28.0122 12.8809C27.9607 12.8681 27.8833 12.8681 27.8833 12.8036C27.8704 12.7262 27.9607 12.7133 27.9993 12.6875C29.1728 11.9138 29.9722 10.8694 30.2301 9.47674C30.4751 8.18726 30.1914 7.00095 29.392 5.94358C29.018 5.45358 28.5538 5.07963 28.0122 4.78305C27.3546 4.4091 26.6325 4.22858 25.8846 4.11252C25.6138 4.07384 25.343 4.06095 25.0722 4.08674C25.1109 4.11252 25.1496 4.11252 25.1883 4.12542C26.0393 4.22858 26.8517 4.43489 27.5738 4.95068C28.3217 5.49226 28.8504 6.18858 29.1857 7.03963C29.4178 7.65858 29.508 8.30331 29.4822 8.96095C29.4435 9.73463 29.2501 10.4696 28.8504 11.1402C28.4893 11.7591 27.9735 12.2749 27.3417 12.6359C27.187 12.7262 27.1999 12.8036 27.1999 12.9454C27.1999 13.0873 27.3159 13.1646 27.4191 13.1775C27.7414 13.242 28.0767 13.3709 28.3346 13.5257C28.7988 13.7965 29.1728 14.1833 29.508 14.5959C30.2688 15.5373 30.5912 16.5946 30.5138 17.7938C30.4622 18.7609 30.0754 19.5733 29.4693 20.3083C28.9278 20.9788 28.2443 21.4559 27.4835 21.817C27.3804 21.8686 27.3417 21.9717 27.2128 21.9717C27.0967 21.9717 26.9807 22.0233 26.8646 22.062C26.2585 22.2683 25.6525 22.423 25.0078 22.4359C24.3759 22.4488 23.7441 22.423 23.1251 22.4359C22.6609 22.4359 22.4546 22.2425 22.4288 21.7783V14.2349C22.4288 14.1188 22.3772 14.0673 22.2483 14.0673C22.1064 14.0544 21.9775 14.0802 21.8357 14.0415C21.5907 13.977 21.5649 14.0028 21.5649 14.2607L21.5262 21.9717C21.4875 22.1523 21.4101 22.307 21.2296 22.3973C20.8557 22.5778 20.4688 22.3586 20.4172 21.9202L20.4043 13.7836ZM14.0859 13.4483C12.8996 15.7307 11.7262 17.9615 10.2304 19.9602C9.01829 21.572 7.49671 22.0749 5.71723 21.5333C3.44776 20.837 2.40328 18.3483 3.33171 15.8209C3.87328 14.3638 4.84039 13.3323 6.00091 12.5586C7.94802 11.2691 9.99829 10.9209 12.1646 11.7333C12.848 11.9912 13.4541 12.4167 14.0214 12.9712C14.1375 13.1002 14.1762 13.3065 14.0859 13.4483ZM19.5275 17.6391C19.3212 17.4715 18.4443 16.672 18.2638 16.4915C17.3225 15.5244 16.407 14.5444 15.4785 13.5773C15.3496 13.4483 15.298 13.3194 15.4012 13.113C16.5617 10.6373 17.7222 8.14858 18.8828 5.65989C18.9085 5.60831 18.9472 5.51805 19.0117 5.402L19.0504 5.36331C19.102 5.31174 19.1535 5.27305 19.2309 5.27305C19.3212 5.26016 19.4114 5.27305 19.4888 5.28595C19.5791 5.29884 19.6564 5.37621 19.6564 5.47937C19.6564 9.50252 19.5533 13.6288 19.5533 17.652C19.5404 17.652 19.5404 17.652 19.5275 17.6391ZM20.3914 4.4091C20.3914 4.18989 20.4301 4.15121 20.6493 4.13831C21.0491 4.13831 21.4488 4.13831 21.8485 4.13831C22.4804 4.15121 23.1122 4.09963 23.7441 4.24147C24.9949 4.52516 26.0135 5.16989 26.7099 6.25305C27.3933 7.29752 27.5738 8.44516 27.3417 9.67016C27.058 11.1659 26.1812 12.2233 24.8401 12.8809C23.9504 13.3065 22.9962 13.4741 22.0162 13.4741C21.5907 13.4741 21.178 13.3967 20.7654 13.4096C20.4946 13.4096 20.4043 13.3194 20.4043 13.0486L20.3914 4.4091Z" fill="#7A2C1A"/>
</g>
<defs>
<clipPath id="clip0_3004_1061">
<rect width="34.6316" height="28" fill="white"/>
</clipPath>
</defs>
</svg>
