<svg width="47" height="38" viewBox="0 0 47 38" fill="none" xmlns="http://www.w3.org/2000/svg"><g clip-path="url(#clip0_3005_1128)"><path d="M8.05977 50.312C8.05977 51.0295 8.18227 51.5195 9.84477 51.5195V51.5895H4.19226V51.5195C5.85476 51.5195 5.97727 51.047 5.97727 50.312V39.182C5.97727 38.482 5.94227 38.342 5.57477 38.342H5.13727C2.37227 38.342 1.77726 39.4795 0.954765 42.3495H0.884766L1.35727 37.957H1.42727C1.60227 38.202 2.21477 38.237 2.54727 38.237H11.4548C11.8048 38.237 12.4348 38.202 12.5923 37.957H12.6623L13.1348 42.3495H13.0648C12.3998 39.777 11.7873 38.342 8.86477 38.342H8.40977C8.07727 38.342 8.02477 38.482 8.02477 39.182V50.312H8.05977Z" fill="white"/><path d="M29.2692 17.4646C29.2692 17.7446 29.3217 17.7971 29.6017 17.7796C29.7942 17.7621 29.9867 17.7271 30.1792 17.7096C30.3542 17.6921 30.4417 17.6046 30.4242 17.4296V6.43962C30.4242 6.21212 30.3542 6.08962 30.1092 6.10712C29.9167 6.12462 29.7242 6.10712 29.5317 6.10712C29.2517 6.10712 29.1992 6.15962 29.2342 6.43962L29.2692 17.4646Z" fill="white"/><path d="M27.6937 18.7066C27.6937 18.4966 27.8512 18.3566 28.0612 18.3741C28.7437 18.4441 29.4262 18.5316 30.1087 18.5491C31.5437 18.6016 32.9262 18.3391 34.2387 17.7441C35.2537 17.2891 36.1462 16.6591 36.8462 15.7841C37.3187 15.1891 37.7212 14.5591 37.9662 13.8241C38.2287 13.0891 38.3512 12.3366 38.3512 11.5666C38.3512 10.3766 37.9487 9.32656 37.2837 8.36406C36.4437 7.12156 35.2187 6.40406 33.8362 5.91406C32.6112 5.47656 31.3337 5.47656 30.0562 5.47656C29.3912 5.47656 28.7437 5.49406 28.0787 5.49406C27.3087 5.49406 26.5562 5.49406 25.7862 5.47656C25.7512 5.47656 25.7337 5.47656 25.6987 5.47656C25.6462 5.47656 25.5937 5.47656 25.5412 5.49406C25.3837 5.54656 25.2612 5.68656 25.1562 5.89656C23.9487 8.43406 22.7237 10.9716 21.4987 13.4916C20.9387 14.6641 20.3437 15.8016 19.7487 16.9916L18.8387 16.2916C18.2437 15.8366 17.5787 15.4866 16.8962 15.2591C13.9737 14.2966 11.0862 14.5416 8.30369 16.3441C6.65869 17.3941 5.22369 18.7241 4.38369 20.7366C2.56369 25.0766 4.80369 29.8191 8.74119 30.5191C10.8937 30.9041 12.8187 30.0116 14.4287 28.3141C15.8637 26.8091 16.9837 25.0241 18.0512 23.1691C18.7687 21.9266 19.4337 20.6491 20.0987 19.4416C20.2037 19.2491 20.4312 19.1966 20.5887 19.3366C22.2687 20.8066 24.8587 23.1166 26.5037 24.5866C26.5387 24.6216 26.5562 24.6566 26.5562 24.7091C26.5562 25.6366 26.5737 28.8216 26.5562 29.5041C26.5387 30.1341 26.2937 30.3791 25.6812 30.4666C25.6287 30.4666 25.5412 30.4491 25.5062 30.5541C25.5937 30.6416 25.7162 30.6066 25.8212 30.6241C28.2012 30.6241 30.5812 30.6241 32.9612 30.6241C34.5537 30.6241 36.1112 30.4491 37.6337 29.9591C39.4537 29.3641 40.9937 28.3666 42.0437 26.7216C42.7612 25.5841 43.0237 24.3416 42.8662 23.0116C42.7962 22.3641 42.5862 21.7516 42.2712 21.1741C42.0262 20.7191 41.7637 20.2816 41.4487 19.8791C40.5212 18.7766 39.3837 17.9541 38.0187 17.4816C37.9487 17.4641 37.8437 17.4641 37.8437 17.3766C37.8262 17.2716 37.9487 17.2541 38.0012 17.2191C39.5937 16.1691 40.6787 14.7516 41.0287 12.8616C41.3612 11.1116 40.9762 9.50156 39.8912 8.06656C39.3837 7.40156 38.7537 6.89406 38.0187 6.49156C37.1262 5.98406 36.1462 5.73906 35.1312 5.58156C34.7637 5.52906 34.3962 5.51156 34.0287 5.54656C34.0812 5.58156 34.1337 5.58156 34.1862 5.59906C35.3412 5.73906 36.4437 6.01906 37.4237 6.71906C38.4387 7.45406 39.1562 8.39906 39.6112 9.55406C39.9262 10.3941 40.0487 11.2691 40.0137 12.1616C39.9612 13.2116 39.6987 14.2091 39.1562 15.1191C38.6662 15.9591 37.9662 16.6591 37.1087 17.1491C36.8987 17.2716 36.9162 17.3766 36.9162 17.5691C36.9162 17.7616 37.0737 17.8666 37.2137 17.8841C37.6512 17.9716 38.1062 18.1466 38.4562 18.3566C39.0862 18.7241 39.5937 19.2491 40.0487 19.8091C41.0812 21.0866 41.5187 22.5216 41.4137 24.1491C41.3437 25.4616 40.8187 26.5641 39.9962 27.5616C39.2612 28.4716 38.3337 29.1191 37.3012 29.6091C37.1612 29.6791 37.1087 29.8191 36.9337 29.8191C36.7762 29.8191 36.6187 29.8891 36.4612 29.9416C35.6387 30.2216 34.8162 30.4316 33.9412 30.4491C33.0837 30.4666 32.2262 30.4316 31.3862 30.4491C30.7562 30.4491 30.4762 30.1866 30.4412 29.5566V19.3191C30.4412 19.1616 30.3712 19.0916 30.1962 19.0916C30.0037 19.0741 29.8287 19.1091 29.6362 19.0566C29.3037 18.9691 29.2687 19.0041 29.2687 19.3541L29.2162 29.8191C29.1637 30.0641 29.0587 30.2741 28.8137 30.3966C28.3062 30.6416 27.7812 30.3441 27.7112 29.7491L27.6937 18.7066ZM19.1187 18.2516C17.5087 21.3491 15.9162 24.3766 13.8862 27.0891C12.2412 29.2766 10.1762 29.9591 7.76119 29.2241C4.68119 28.2791 3.26369 24.9016 4.52369 21.4716C5.25869 19.4941 6.57119 18.0941 8.14619 17.0441C10.7887 15.2941 13.5712 14.8216 16.5112 15.9241C17.4387 16.2741 18.2612 16.8516 19.0312 17.6041C19.1887 17.7791 19.2412 18.0591 19.1187 18.2516ZM26.5037 23.9391C26.2237 23.7116 25.0337 22.6266 24.7887 22.3816C23.5112 21.0691 22.2687 19.7391 21.0087 18.4266C20.8337 18.2516 20.7637 18.0766 20.9037 17.7966C22.4787 14.4366 24.0537 11.0591 25.6287 7.68156C25.6637 7.61156 25.7162 7.48906 25.8037 7.33156L25.8562 7.27906C25.9262 7.20906 25.9962 7.15656 26.1012 7.15656C26.2237 7.13906 26.3462 7.15656 26.4512 7.17406C26.5737 7.19156 26.6787 7.29656 26.6787 7.43656C26.6787 12.8966 26.5387 18.4966 26.5387 23.9566C26.5212 23.9566 26.5212 23.9566 26.5037 23.9391ZM27.6762 5.98406C27.6762 5.68656 27.7287 5.63406 28.0262 5.61656C28.5687 5.61656 29.1112 5.61656 29.6537 5.61656C30.5112 5.63406 31.3687 5.56406 32.2262 5.75656C33.9237 6.14156 35.3062 7.01656 36.2512 8.48656C37.1787 9.90406 37.4237 11.4616 37.1087 13.1241C36.7237 15.1541 35.5337 16.5891 33.7137 17.4816C32.5062 18.0591 31.2112 18.2866 29.8812 18.2866C29.3037 18.2866 28.7437 18.1816 28.1837 18.1991C27.8162 18.1991 27.6937 18.0766 27.6937 17.7091L27.6762 5.98406Z" fill="white"/></g><defs><clipPath id="clip0_3005_1128"><rect width="47" height="38" fill="white"/></clipPath></defs></svg>